<?xml version="1.0" encoding="UTF-8"?>
<svg width="16px" height="16px" viewBox="0 0 16 16" version="1.1" xmlns="http://www.w3.org/2000/svg" xmlns:xlink="http://www.w3.org/1999/xlink">
    <title>save</title>
    <g id="1" stroke="none" stroke-width="1" fill="none" fill-rule="evenodd">
        <g id="13_Icon" transform="translate(-343.000000, -53.000000)">
            <g id="save" transform="translate(343.000000, 53.000000)">
                <rect id="矩形" fill="#fff" opacity="0" x="0" y="0" width="16" height="16"></rect>
                <path d="M4,2 L10.1441988,2 C10.6907651,2 11.2135192,2.2236868 11.5909099,2.61904851 L13.4467111,4.56322114 C13.8018483,4.93526967 14,5.42983562 14,5.94417263 L14,12 C14,13.1045695 13.1045695,14 12,14 L4,14 C2.8954305,14 2,13.1045695 2,12 L2,4 C2,2.8954305 2.8954305,2 4,2 Z" id="矩形" stroke="#fff" stroke-width="2" stroke-linecap="round"></path>
                <path d="M5,2 L9,2 L9,6.57142857 C9,7.12371332 8.55228475,7.57142857 8,7.57142857 L6,7.57142857 C5.44771525,7.57142857 5,7.12371332 5,6.57142857 L5,2 L5,2 Z" id="矩形" stroke="#fff" stroke-width="2" stroke-linecap="round"></path>
                <path d="M5,11 L11,11 L11,13 C11,13.5522847 10.5522847,14 10,14 L6,14 C5.44771525,14 5,13.5522847 5,13 L5,11 L5,11 Z" id="矩形备份-11" stroke="#fff" stroke-width="2" stroke-linecap="round" transform="translate(8.000000, 12.500000) rotate(-180.000000) translate(-8.000000, -12.500000) "></path>
            </g>
        </g>
    </g>
</svg>