<svg width="16" height="16" viewBox="0 0 16 16" fill="none" xmlns="http://www.w3.org/2000/svg">
<path fill-rule="evenodd" clip-rule="evenodd" d="M8 0C12.4183 0 16 3.58172 16 8C16 12.4183 12.4183 16 8 16C3.58172 16 0 12.4183 0 8C0 3.58172 3.58172 0 8 0ZM11.6562 5.17614C11.3064 4.90633 10.804 4.97124 10.5342 5.32112L7.384 9.4056L5.10498 7.15697L5.02917 7.09093C4.71368 6.84908 4.26006 6.87437 3.97366 7.16473C3.6634 7.47929 3.66686 7.98581 3.98141 8.29608L6.90442 11.1792L6.98083 11.2458C7.325 11.5093 7.82733 11.4514 8.0997 11.0982L11.8012 6.29818L11.8576 6.21491C12.0594 5.8724 11.9792 5.42519 11.6562 5.17614Z" fill="#0072EC"/>
</svg>
