<svg width="18" height="18" viewBox="0 0 20 20" fill="none" xmlns="http://www.w3.org/2000/svg">
<path d="M5.60906 4.34675L5.62423 4.33422C5.95268 4.07809 6.36894 3.96194 6.78254 4.01102C7.19614 4.0601 7.57366 4.27044 7.83306 4.59634L9.04825 6.12486C9.30161 6.42559 9.26664 7.69096 8.94935 8.234L8.52505 8.71108L8.56197 8.77009C9.25954 9.86514 10.1882 10.7943 11.2828 11.4925L11.3256 11.5195L11.772 11.0728C12.3216 10.5067 13.2045 10.445 13.8177 10.9112L15.4163 12.1822L15.4506 12.2129L15.5752 12.3382C16.161 12.9538 16.1366 13.9277 15.5284 14.5067L14.4582 15.5769C13.2536 16.7355 10.5235 15.4292 7.72724 12.7005L7.5202 12.4958C4.63059 9.60722 3.21529 6.73977 4.44432 5.51062L5.45378 4.50039L5.46137 4.48753C5.48702 4.44895 5.5185 4.41458 5.55467 4.38565L5.59226 4.35796C5.5978 4.35414 5.6034 4.3504 5.60906 4.34675Z" stroke="white" stroke-linejoin="round"/>
</svg>
