<svg width="120" height="120" viewBox="0 0 120 120" fill="none" xmlns="http://www.w3.org/2000/svg">
<ellipse cx="59.7167" cy="93.025" rx="51.7167" ry="8.025" fill="#F7F7F7"/>
<path d="M36.5 52L23 69H92L79.5 52H36.5Z" fill="#A0AAB5"/>
<path d="M33 28C33 26.8954 33.8954 26 35 26H80C81.1046 26 82 26.8954 82 28V76H33V28Z" fill="#F5F5F8"/>
<path d="M46 71C46 69.8954 45.1046 69 44 69H23V93C23 94.1046 23.8954 95 25 95H90C91.1046 95 92 94.1046 92 93V69H71C69.8954 69 69 69.8954 69 71V74C69 75.1046 68.1046 76 67 76H48C46.8954 76 46 75.1046 46 74V71Z" fill="#D6DADE"/>
<rect x="42" y="33" width="31" height="18" rx="2" fill="#A0AAB5"/>
<rect x="42" y="57" width="31" height="2" rx="1" fill="#A0AAB5"/>
<rect x="42" y="63" width="31" height="2" rx="1" fill="#A0AAB5"/>
<path fill-rule="evenodd" clip-rule="evenodd" d="M77 20C75.8954 20 75 20.8954 75 22V33.1667C75 34.2712 75.8954 35.1667 77 35.1667L78.5 35.1667L78.4998 38.6667L83.1667 35.1667L95 35.1667C96.1046 35.1667 97 34.2712 97 33.1667V22C97 20.8954 96.1046 20 95 20H77Z" fill="#D6DADE"/>
<circle cx="81" cy="28" r="1" fill="white"/>
<circle cx="86" cy="28" r="1" fill="white"/>
<circle cx="91" cy="28" r="1" fill="white"/>
</svg>
