<?xml version="1.0" encoding="UTF-8"?>
<svg width="20px" height="20px" viewBox="0 0 20 20" version="1.1" xmlns="http://www.w3.org/2000/svg" xmlns:xlink="http://www.w3.org/1999/xlink">
    <title>3</title>
    <g id="1" stroke="currentColor" stroke-width="1" fill="none" fill-rule="evenodd">
        <g id="13_Icon" transform="translate(-143.000000, -162.000000)">
            <g id="3" transform="translate(143.000000, 162.000000)">
                <rect id="area" fill="currentColor" opacity="0" x="0" y="0" width="20" height="20"></rect>
                <path d="M17,2 C18.1045695,2 19,2.8954305 19,4 L19,7 L19,7 C17.3431458,7 16,8.34314575 16,10 C16,11.6568542 17.3431458,13 19,13 L19,16 C19,17.1045695 18.1045695,18 17,18 L3,18 C1.8954305,18 1,17.1045695 1,16 L1,13 L1,13 C2.65685425,13 4,11.6568542 4,10 C4,8.34314575 2.65685425,7 1,7 L1,4 C1,2.8954305 1.8954305,2 3,2 L17,2 Z" id="Billing-Invoice" stroke="currentColor" stroke-linecap="round" stroke-linejoin="round" transform="translate(10.000000, 10.000000) rotate(-270.000000) translate(-10.000000, -10.000000) "></path>
                <line x1="5" y1="8" x2="15" y2="8" id="路径" stroke="currentColor" stroke-linecap="round" stroke-linejoin="round"></line>
                <line x1="5" y1="12" x2="10" y2="12" id="路径" stroke="currentColor" stroke-linecap="round" stroke-linejoin="round"></line>
            </g>
        </g>
    </g>
</svg>