<?xml version="1.0" encoding="UTF-8"?>
<svg width="20px" height="20px" viewBox="0 0 20 20" version="1.1" xmlns="http://www.w3.org/2000/svg" xmlns:xlink="http://www.w3.org/1999/xlink">
    <title>6</title>
    <g id="1" stroke="currentColor" stroke-width="1" fill="none" fill-rule="evenodd">
        <g id="13_Icon" transform="translate(-233.000000, -162.000000)">
            <g id="6" transform="translate(233.000000, 162.000000)">
                <rect id="area" fill="currentColor" opacity="0" x="0" y="0" width="20" height="20"></rect>
                <path d="M18,14 L18,17 C18,18.1045695 17.1045695,19 16,19 L4,19 C2.8954305,19 2,18.1045695 2,17 L2,8 C2,6.8954305 2.8954305,6 4,6 L16,6 C17.1045695,6 18,6.8954305 18,8 L18,10 L18,10" id="路径" stroke="currentColor" stroke-linejoin="round"></path>
                <rect id="矩形" stroke="currentColor" stroke-linejoin="round" x="9" y="10" width="10" height="4" rx="2"></rect>
                <line x1="11" y1="12" x2="12" y2="12" id="路径备份-2" stroke="currentColor" stroke-linecap="round" stroke-linejoin="round"></line>
                <path d="M4.68435467,3.18319824 C6.43824163,3.18319824 9.06907208,3.18319824 12.576846,3.18319824 C13.9401698,3.18319824 15.0453621,4.28839053 15.0453621,5.65171432 L15.0453621,8.18319824" id="路径" stroke="currentColor" stroke-linecap="round" stroke-linejoin="round" transform="translate(9.864858, 5.683198) rotate(-25.000000) translate(-9.864858, -5.683198) "></path>
            </g>
        </g>
    </g>
</svg>