<svg width="60" height="24" viewBox="0 0 60 24" fill="none" xmlns="http://www.w3.org/2000/svg">
<path fill-rule="evenodd" clip-rule="evenodd" d="M11.4768 9.38442C8.79067 14.571 10.2508 19.3104 13.543 21.7788C7.4061 23.4724 -0.163125 19.5448 3.24129 10.3019C5.72961 3.88416 14.1918 -2.46037 18.7384 2.04132C15.6871 3.83504 12.9064 6.62363 11.4768 9.38442V9.38442ZM23.3476 6.80852H25.6413C29.6657 1.46488 35.7767 -1.91544 39.2691 2.1604C41.0429 4.46199 41.3242 6.78952 41.3242 6.78952C41.5957 6.07963 41.4655 4.05792 39.5569 1.80268C37.1511 -0.889992 32.933 -0.298262 29.1458 1.81936C26.6436 -0.756077 22.7137 -0.176395 19.098 1.8416C14.3966 -3.05488 4.5772 3.25443 1.40262 9.38442C-3.48969 18.8322 5.30794 26.8346 14.0523 22.1606C16.7477 23.8857 20.4811 24.1401 24.202 22.1203C27.1783 24.4395 31.5827 24.8153 35.5816 22.0971C38.3345 20.1407 39.6384 17.6153 39.3549 17.7812C39.0388 17.967 38.2034 19.3257 34.881 21.3339C31.0433 23.1897 25.9077 21.9043 23.9036 17.651H21.1313C21.6489 19.3196 22.5951 20.7204 23.8086 21.7857C18.124 23.8311 9.88979 19.6032 13.3155 10.3019C15.8011 3.89111 24.247 -2.44508 28.7969 2.02881C26.6936 3.26602 24.7437 4.95502 23.3476 6.80852" fill="#FEFEFE"/>
<path fill-rule="evenodd" clip-rule="evenodd" d="M41.4234 10.9972L41.5685 10.4347C41.6737 10.0357 41.7177 9.77809 41.7042 9.66317C41.6908 9.5464 41.6204 9.48941 41.4953 9.49033C41.3335 9.49172 41.2205 9.5413 41.1556 9.64047C41.094 9.74009 41.0073 10.007 40.8956 10.4398L40.7483 11.0028L41.4234 10.9972ZM43.4294 12.2159L40.429 12.2419L39.9986 13.8975C39.91 14.2446 39.8767 14.4684 39.8994 14.5675C39.9226 14.6662 40.0041 14.7163 40.145 14.714C40.316 14.714 40.449 14.6463 40.5435 14.5129C40.6357 14.3785 40.7312 14.1218 40.8303 13.7404L41.0921 12.7293L43.3015 12.7113L43.1551 13.2756C43.0318 13.7483 42.9095 14.112 42.7834 14.3669C42.6574 14.6204 42.448 14.8928 42.1556 15.1834C41.8632 15.4725 41.5319 15.6931 41.1584 15.839C40.7868 15.9859 40.3479 16.0619 39.8415 16.0661C39.3508 16.0698 38.9407 16.0035 38.5978 15.8631C38.26 15.725 38.0176 15.5327 37.8744 15.2862C37.7299 15.0392 37.6557 14.7686 37.652 14.4707C37.6479 14.1737 37.7201 13.7418 37.8675 13.1718L38.4449 10.9412C38.6172 10.2734 38.8448 9.74426 39.1246 9.35595C39.4031 8.96811 39.7775 8.67062 40.2404 8.46025C40.7015 8.25173 41.2001 8.14423 41.7311 8.1396C42.3822 8.13496 42.8863 8.25405 43.2463 8.49825C43.605 8.74291 43.8177 9.06773 43.8826 9.47597C43.947 9.88559 43.8835 10.4597 43.6921 11.2011L43.4294 12.2159Z" fill="#FEFEFE"/>
<path fill-rule="evenodd" clip-rule="evenodd" d="M47.6589 10.1781C47.7447 9.83987 47.7803 9.62486 47.7641 9.53173C47.7474 9.43905 47.6733 9.3941 47.5436 9.39457C47.4138 9.39549 47.3068 9.44925 47.2271 9.55629C47.1451 9.66286 47.064 9.87184 46.9843 10.1832L46.3402 12.6697C46.2549 12.9996 46.2202 13.2137 46.2336 13.3119C46.248 13.4102 46.3212 13.4588 46.4523 13.457C46.5983 13.4556 46.7099 13.3963 46.7869 13.2776C46.8629 13.1572 46.9541 12.8875 47.064 12.4681L47.6589 10.1781ZM50.4091 8.19906L48.9365 13.893C48.7354 14.6627 48.5889 15.1603 48.4944 15.3841C48.3989 15.6089 48.2131 15.8466 47.9323 16.1001C47.6552 16.3521 47.3068 16.5468 46.8902 16.6807C46.4722 16.8169 45.9746 16.8878 45.3981 16.892C44.6808 16.8985 44.1387 16.7808 43.7684 16.5417C43.3996 16.3002 43.2986 15.823 43.4691 15.1094L45.6465 15.0899C45.5608 15.4235 45.6377 15.5894 45.8773 15.5876C46.0478 15.5857 46.1747 15.5347 46.2586 15.4314C46.3392 15.3285 46.424 15.1149 46.5079 14.7924L46.6543 14.2276C46.4152 14.4041 46.1798 14.5385 45.944 14.6293C45.7063 14.7215 45.4709 14.766 45.2373 14.7697C44.8337 14.7725 44.5214 14.6928 44.3022 14.5329C44.0831 14.3712 43.9598 14.1608 43.9302 13.8949C43.8991 13.6321 43.9482 13.2554 44.0766 12.7647L44.7693 10.0855C44.9514 9.38576 45.2077 8.88161 45.5395 8.57069C45.8708 8.26162 46.2952 8.10453 46.8073 8.0999C47.0885 8.09804 47.3272 8.15365 47.5292 8.26671C47.7321 8.38024 47.8939 8.55123 48.019 8.77921L48.3202 8.21713L50.4091 8.19906Z" fill="#FEFEFE"/>
<path fill-rule="evenodd" clip-rule="evenodd" d="M53.6776 10.1274C53.7643 9.78963 53.799 9.57509 53.7833 9.48102C53.767 9.38788 53.6938 9.34294 53.5636 9.34433C53.4339 9.34526 53.3273 9.39901 53.2453 9.50558C53.166 9.61216 53.0854 9.82114 53.0034 10.1321L52.3607 12.6185C52.2764 12.948 52.2402 13.1621 52.2551 13.2617C52.268 13.3599 52.3426 13.4081 52.4724 13.4072C52.6165 13.4049 52.7277 13.3465 52.8046 13.2269C52.8825 13.1065 52.9747 12.8368 53.0845 12.4174L53.6776 10.1274ZM56.4296 8.14882L54.9547 13.8428C54.7559 14.6129 54.6085 15.1092 54.514 15.3339C54.4186 15.5582 54.2341 15.7964 53.9538 16.0489C53.6739 16.3019 53.3273 16.4951 52.9093 16.6309C52.4928 16.7676 51.996 16.8366 51.4173 16.8408C50.7014 16.8482 50.1583 16.7305 49.7894 16.491C49.4192 16.25 49.3191 15.7737 49.4901 15.0587L51.667 15.0406C51.5813 15.3733 51.6559 15.5392 51.8978 15.5369C52.0692 15.5355 52.1953 15.4831 52.2778 15.3807C52.3607 15.2778 52.4427 15.0656 52.5284 14.7422L52.6735 14.1759C52.4381 14.3534 52.1999 14.4873 51.9622 14.5786C51.7282 14.6694 51.4914 14.7162 51.2565 14.7185C50.8524 14.7213 50.5424 14.6435 50.3232 14.4836C50.1045 14.3224 49.9803 14.1092 49.9512 13.8451C49.9215 13.581 49.9697 13.2042 50.0957 12.7154L50.788 10.0357C50.971 9.33552 51.2287 8.83137 51.5591 8.52045C51.8941 8.21091 52.3148 8.0529 52.8283 8.04966C53.1077 8.04688 53.3486 8.10295 53.5493 8.21601C53.7518 8.33 53.9144 8.4996 54.0395 8.72943L54.343 8.16689L56.4296 8.14882Z" fill="#FEFEFE"/>
<path fill-rule="evenodd" clip-rule="evenodd" d="M38.7328 8.0907L35.7088 16.0394L33.1162 16.0626C33.2242 15.0923 33.3906 13.8097 33.6121 12.212C33.3456 12.9195 33.0616 13.6285 32.7604 14.3384L32.0653 16.0695L29.4741 16.0936L30.5088 8.16067L32.5685 8.1426C32.538 8.34834 32.323 9.8682 31.9207 12.7041C32.0352 12.4005 32.6116 10.877 33.6514 8.13379L35.6171 8.11665L34.9368 12.6776C35.3627 11.3357 35.9414 9.8126 36.668 8.10784L38.7328 8.0907Z" fill="#FEFEFE"/>
<path fill-rule="evenodd" clip-rule="evenodd" d="M27.0244 11.011L27.1754 10.4276C27.2834 10.0129 27.3293 9.74646 27.3149 9.62691C27.3005 9.5069 27.2292 9.44712 27.0985 9.44898C26.9289 9.4499 26.8126 9.5018 26.7491 9.60467C26.6838 9.70754 26.592 9.98371 26.4766 10.4318L26.3256 11.0161L27.0244 11.011ZM29.1044 12.2751L25.9915 12.3015L25.5476 14.0197C25.4544 14.3797 25.4206 14.6105 25.4438 14.7138C25.467 14.8167 25.5518 14.8668 25.6977 14.8658C25.8761 14.8654 26.0137 14.794 26.111 14.6573C26.206 14.5178 26.3052 14.2519 26.4081 13.8566L26.6787 12.8075L28.9696 12.7876L28.8199 13.3742C28.6934 13.8654 28.5637 14.2412 28.4344 14.5049C28.3037 14.7685 28.0892 15.0516 27.7838 15.3524C27.4812 15.6522 27.137 15.8802 26.75 16.0321C26.365 16.1851 25.909 16.2629 25.3822 16.2661C24.8757 16.2726 24.4485 16.2027 24.0963 16.059C23.7427 15.9149 23.4925 15.7147 23.3424 15.4585C23.1941 15.2041 23.1172 14.9219 23.1125 14.6138C23.1075 14.3056 23.1825 13.8566 23.335 13.2667L23.9346 10.9526C24.1134 10.2585 24.3484 9.71171 24.6398 9.30904C24.9299 8.90637 25.3154 8.59729 25.795 8.38044C26.2774 8.16497 26.7927 8.05329 27.3418 8.04727C28.0178 8.04217 28.5414 8.16728 28.9149 8.41936C29.2893 8.67329 29.5076 9.01109 29.5738 9.43415C29.6406 9.85767 29.5762 10.4517 29.3769 11.2232L29.1044 12.2751Z" fill="#FEFEFE"/>
<path fill-rule="evenodd" clip-rule="evenodd" d="M20.9053 8.24433L20.6685 8.97507C20.9196 8.68314 21.1893 8.4635 21.4771 8.31569C21.7648 8.16972 22.0739 8.09373 22.4061 8.09141C22.8162 8.08909 23.1276 8.18316 23.338 8.37546C23.5511 8.56961 23.6554 8.81474 23.6517 9.11084C23.6484 9.4074 23.5572 9.90228 23.3783 10.596L21.939 16.1592L19.5267 16.1787L20.9488 10.6789C21.0929 10.1321 21.1606 9.79848 21.1573 9.6794C21.1536 9.56077 21.0716 9.50053 20.9104 9.50239C20.7468 9.50424 20.6245 9.57375 20.5434 9.71183C20.4646 9.84946 20.346 10.2188 20.1921 10.8161L18.802 16.1852L16.3901 16.206L18.4447 8.26471L20.9053 8.24433Z" fill="#FEFEFE"/>
<path fill-rule="evenodd" clip-rule="evenodd" d="M58.4149 8.14551V8.38461H58.0113V9.49486H57.7277V8.38461H57.3218V8.14551H58.4149Z" fill="#FEFEFE"/>
<path fill-rule="evenodd" clip-rule="evenodd" d="M59.4741 8.14551H59.8796V9.49486H59.6173V8.58201C59.6173 8.55559 59.6178 8.51899 59.6182 8.47172C59.6187 8.42446 59.6192 8.38785 59.6192 8.36237L59.3634 9.49486H59.0895L58.8356 8.36237C58.8356 8.38785 58.8361 8.42446 58.8365 8.47172C58.837 8.51899 58.8374 8.55559 58.8374 8.58201V9.49486H58.5747V8.14551H58.9848L59.2304 9.20617L59.4741 8.14551Z" fill="#FEFEFE"/>
</svg>
