<svg width="197" height="34" viewBox="0 0 197 34" fill="none" xmlns="http://www.w3.org/2000/svg">
<path fill-rule="evenodd" clip-rule="evenodd" d="M94.0548 18.683C94.0167 19.4064 93.7305 19.9782 93.1968 20.399C92.6625 20.8191 91.9581 21.0298 91.0817 21.0298C90.3176 21.0298 89.7098 20.8736 89.2588 20.5618L89.3336 19.1399C89.9815 19.5141 90.5907 19.7005 91.1625 19.7005C91.5505 19.7005 91.8564 19.627 92.0828 19.48C92.308 19.3329 92.4275 19.1314 92.4413 18.8754C92.4485 18.7264 92.4321 18.5957 92.3914 18.4828C92.3507 18.3706 92.2896 18.2662 92.2082 18.169C92.1262 18.0719 91.9213 17.896 91.5925 17.6399C91.1323 17.2966 90.8146 16.9585 90.638 16.6224C90.4621 16.287 90.3839 15.9246 90.4043 15.5373C90.4279 15.0916 90.5559 14.6918 90.789 14.3413C91.022 13.9901 91.341 13.7163 91.748 13.5214C92.1544 13.3251 92.6152 13.2273 93.1312 13.2273C93.8815 13.2273 94.5603 13.3993 95.1649 13.7413L94.5353 14.9505C94.0095 14.6951 93.5178 14.5671 93.0609 14.5671C92.7741 14.5671 92.5345 14.6446 92.3428 14.8001C92.1518 14.9557 92.0487 15.1625 92.0356 15.4185C92.0244 15.6292 92.0717 15.813 92.178 15.9712C92.2837 16.1281 92.5292 16.3369 92.9132 16.5968C93.3176 16.8732 93.615 17.1785 93.8047 17.5126C93.9944 17.8467 94.0784 18.2366 94.0548 18.683Z" fill="#FEFEFE"/>
<path fill-rule="evenodd" clip-rule="evenodd" d="M100.253 20.9254H98.6642L99.5314 17.6504H97.0868L96.2189 20.9254H94.6362L96.6377 13.3362H98.2263L97.4425 16.3106H99.8872L100.671 13.3362H102.254L100.253 20.9254Z" fill="#FEFEFE"/>
<path fill-rule="evenodd" clip-rule="evenodd" d="M106.367 14.5566C105.949 14.5566 105.556 14.7148 105.19 15.0318C104.824 15.3482 104.527 15.7835 104.299 16.3368C104.071 16.8902 103.94 17.4909 103.906 18.1381C103.88 18.6469 103.974 19.0309 104.191 19.2902C104.408 19.5502 104.725 19.6795 105.143 19.6795C105.563 19.6795 105.952 19.5292 106.313 19.2285C106.672 18.9265 106.964 18.5012 107.186 17.9511C107.409 17.4009 107.537 16.7832 107.574 16.0979C107.599 15.6069 107.507 15.2268 107.296 14.9583C107.085 14.6905 106.775 14.5566 106.367 14.5566ZM109.196 16.0565C109.144 17.0353 108.927 17.9123 108.544 18.6856C108.16 19.4589 107.662 20.0431 107.045 20.437C106.429 20.8322 105.734 21.0298 104.959 21.0298C104.073 21.0298 103.395 20.7738 102.925 20.2637C102.456 19.7537 102.244 19.0447 102.292 18.1381C102.34 17.2211 102.555 16.3775 102.938 15.6075C103.321 14.8382 103.825 14.2467 104.448 13.8351C105.072 13.4229 105.778 13.2174 106.567 13.2174C107.449 13.2174 108.12 13.4662 108.579 13.9651C109.036 14.4627 109.242 15.1605 109.196 16.0565Z" fill="#FEFEFE"/>
<path fill-rule="evenodd" clip-rule="evenodd" d="M111.889 16.9079H112.18C112.671 16.9079 113.064 16.7878 113.359 16.5495C113.654 16.3106 113.811 15.9909 113.833 15.5891C113.865 14.9662 113.544 14.655 112.869 14.655H112.485L111.889 16.9079ZM115.428 15.5484C115.384 16.3821 115.057 17.0366 114.446 17.5125C113.834 17.9884 113.013 18.2261 111.981 18.2261H111.535L110.828 20.9254H109.245L111.246 13.3369H113C113.838 13.3369 114.461 13.5213 114.871 13.8896C115.281 14.2578 115.466 14.8112 115.428 15.5484Z" fill="#FEFEFE"/>
<path fill-rule="evenodd" clip-rule="evenodd" d="M117.758 16.9079H118.049C118.541 16.9079 118.934 16.7878 119.228 16.5495C119.523 16.3106 119.68 15.9909 119.701 15.5891C119.734 14.9662 119.413 14.655 118.738 14.655H118.354L117.758 16.9079ZM121.297 15.5484C121.253 16.3821 120.926 17.0366 120.314 17.5125C119.703 17.9884 118.881 18.2261 117.851 18.2261H117.404L116.697 20.9254H115.113L117.115 13.3369H118.869C119.707 13.3369 120.331 13.5213 120.74 13.8896C121.15 14.2578 121.336 14.8112 121.297 15.5484Z" fill="#FEFEFE"/>
<path fill-rule="evenodd" clip-rule="evenodd" d="M120.983 20.9254L123 13.3362H124.583L122.566 20.9254H120.983Z" fill="#FEFEFE"/>
<path fill-rule="evenodd" clip-rule="evenodd" d="M130.303 20.9254H128.528L126.981 15.1841H126.95L126.92 15.3509C126.77 16.0979 126.621 16.7662 126.473 17.3544L125.533 20.9254H124.106L126.107 13.3362H127.961L129.432 18.9265H129.453C129.509 18.6646 129.595 18.2885 129.715 17.8007C129.833 17.313 130.223 15.8242 130.882 13.3362H132.304L130.303 20.9254Z" fill="#FEFEFE"/>
<path fill-rule="evenodd" clip-rule="evenodd" d="M135.694 16.6638H138.617L137.569 20.6189C137.097 20.7784 136.661 20.8867 136.262 20.9438C135.862 21.0009 135.442 21.0298 134.999 21.0298C134.102 21.0298 133.424 20.7751 132.962 20.2663C132.501 19.7576 132.295 19.0276 132.345 18.0758C132.394 17.1489 132.622 16.3099 133.032 15.5609C133.441 14.8119 133.993 14.2336 134.685 13.8272C135.378 13.4203 136.164 13.2174 137.043 13.2174C137.797 13.2174 138.498 13.3887 139.144 13.7314L138.479 15.0345C138.23 14.8959 137.979 14.785 137.728 14.7016C137.477 14.6189 137.2 14.5776 136.899 14.5776C136.369 14.5776 135.889 14.7207 135.457 15.0082C135.024 15.2957 134.676 15.7047 134.411 16.2358C134.147 16.7675 133.998 17.3386 133.967 17.9511C133.935 18.5464 134.038 18.9836 134.274 19.262C134.51 19.5403 134.888 19.6795 135.407 19.6795C135.669 19.6795 135.966 19.6381 136.296 19.5554L136.72 18.0029H135.334L135.694 16.6638Z" fill="#FEFEFE"/>
<path fill-rule="evenodd" clip-rule="evenodd" d="M148.899 13.3366L147.599 18.2468C147.353 19.1672 146.94 19.8617 146.358 20.3291C145.776 20.7958 145.039 21.0295 144.146 21.0295C143.412 21.0295 142.846 20.8332 142.446 20.44C142.046 20.0475 141.864 19.5157 141.899 18.8442C141.912 18.5954 141.951 18.3558 142.014 18.1274L143.283 13.3366H144.866L143.609 18.107C143.537 18.363 143.496 18.579 143.487 18.7556C143.454 19.372 143.766 19.6799 144.419 19.6799C144.845 19.6799 145.189 19.5473 145.453 19.2827C145.715 19.0175 145.916 18.623 146.055 18.0965L147.311 13.3366H148.899Z" fill="#FEFEFE"/>
<path fill-rule="evenodd" clip-rule="evenodd" d="M151.026 16.9079H151.316C151.808 16.9079 152.201 16.7878 152.495 16.5495C152.79 16.3106 152.948 15.9909 152.969 15.5891C153.002 14.9662 152.681 14.655 152.006 14.655H151.621L151.026 16.9079ZM154.565 15.5484C154.521 16.3821 154.194 17.0366 153.582 17.5125C152.97 17.9884 152.149 18.2261 151.118 18.2261H150.671L149.964 20.9254H148.381L150.382 13.3369H152.136C152.974 13.3369 153.598 13.5213 154.007 13.8896C154.418 14.2578 154.603 14.8112 154.565 15.5484Z" fill="#FEFEFE"/>
<path fill-rule="evenodd" clip-rule="evenodd" d="M158.111 16.6638H161.033L159.986 20.6189C159.514 20.7784 159.078 20.8867 158.679 20.9438C158.279 21.0009 157.858 21.0298 157.415 21.0298C156.52 21.0298 155.841 20.7751 155.379 20.2663C154.918 19.7576 154.712 19.0276 154.762 18.0758C154.81 17.1489 155.039 16.3099 155.449 15.5609C155.858 14.8119 156.41 14.2336 157.102 13.8272C157.795 13.4203 158.58 13.2174 159.459 13.2174C160.214 13.2174 160.914 13.3887 161.56 13.7314L160.895 15.0345C160.647 14.8959 160.396 14.785 160.145 14.7016C159.893 14.6189 159.617 14.5776 159.315 14.5776C158.786 14.5776 158.305 14.7207 157.873 15.0082C157.441 15.2957 157.093 15.7047 156.828 16.2358C156.563 16.7675 156.415 17.3386 156.383 17.9511C156.351 18.5464 156.455 18.9836 156.69 19.262C156.926 19.5403 157.304 19.6795 157.824 19.6795C158.086 19.6795 158.383 19.6381 158.713 19.5554L159.136 18.0029H157.75L158.111 16.6638Z" fill="#FEFEFE"/>
<path fill-rule="evenodd" clip-rule="evenodd" d="M163.983 16.7057H164.388C164.841 16.7057 165.2 16.6066 165.462 16.4096C165.726 16.2127 165.867 15.9114 165.888 15.5064C165.904 15.2228 165.832 15.0101 165.676 14.8676C165.519 14.7258 165.264 14.6549 164.911 14.6549H164.527L163.983 16.7057ZM163.64 18.0133L162.869 20.9253H161.286L163.288 13.3368H165.151C165.971 13.3368 166.578 13.5134 166.971 13.8659C167.365 14.2191 167.543 14.7363 167.508 15.4184C167.479 15.9652 167.311 16.4346 167.003 16.8271C166.695 17.2203 166.267 17.5118 165.717 17.7022L166.903 20.9253H165.18L164.257 18.0133H163.64Z" fill="#FEFEFE"/>
<path fill-rule="evenodd" clip-rule="evenodd" d="M171.645 17.7695L171.604 15.9531C171.593 15.4995 171.599 15.0617 171.621 14.6389L171.631 14.4525C171.457 14.868 171.246 15.3078 170.996 15.7713L169.916 17.7695H171.645ZM171.651 19.1192H169.196L168.209 20.9257H166.547L170.923 13.3057H172.859L173.223 20.9257H171.681L171.651 19.1192Z" fill="#FEFEFE"/>
<path fill-rule="evenodd" clip-rule="evenodd" d="M176.322 19.5969C176.834 19.5969 177.288 19.465 177.682 19.2017C178.077 18.9391 178.395 18.5525 178.636 18.0418C178.878 17.5317 179.015 16.9475 179.05 16.2897C179.077 15.7573 178.973 15.3517 178.737 15.0733C178.5 14.795 178.147 14.6552 177.676 14.6552H177.079L175.772 19.5969H176.322ZM180.678 16.207C180.628 17.1759 180.414 18.0181 180.038 18.7324C179.66 19.4466 179.142 19.9914 178.48 20.3649C177.819 20.7385 177.052 20.9256 176.18 20.9256H173.839L175.84 13.3364H177.896C178.83 13.3364 179.539 13.5838 180.024 14.0788C180.508 14.5744 180.727 15.2834 180.678 16.207Z" fill="#FEFEFE"/>
<path fill-rule="evenodd" clip-rule="evenodd" d="M184.977 20.9254H180.735L182.737 13.3362H186.983L186.634 14.655H183.976L183.541 16.3211H186.017L185.663 17.6399H183.187L182.669 19.5968H185.327L184.977 20.9254Z" fill="#FEFEFE"/>
<path fill-rule="evenodd" clip-rule="evenodd" d="M188.683 19.5969C189.195 19.5969 189.649 19.465 190.043 19.2017C190.437 18.9391 190.755 18.5525 190.996 18.0418C191.238 17.5317 191.376 16.9475 191.41 16.2897C191.438 15.7573 191.334 15.3517 191.097 15.0733C190.861 14.795 190.508 14.6552 190.037 14.6552H189.44L188.133 19.5969H188.683ZM193.039 16.207C192.989 17.1759 192.775 18.0181 192.398 18.7324C192.021 19.4466 191.502 19.9914 190.841 20.3649C190.18 20.7385 189.413 20.9256 188.541 20.9256H186.2L188.201 13.3364H190.257C191.191 13.3364 191.9 13.5838 192.385 14.0788C192.869 14.5744 193.087 15.2834 193.039 16.207Z" fill="#FEFEFE"/>
<path fill-rule="evenodd" clip-rule="evenodd" d="M16.2589 13.2946C12.4534 20.6422 14.5219 27.3564 19.186 30.8533C10.492 33.2526 -0.231094 27.6885 4.59183 14.5944C8.11695 5.50256 20.105 -3.48552 26.5461 2.89187C22.2234 5.43297 18.284 9.38348 16.2589 13.2946ZM33.0757 9.6454H36.3252C42.0264 2.07525 50.6836 -2.71354 55.6313 3.06057C58.1442 6.32115 58.5426 9.61848 58.5426 9.61848C58.9273 8.61281 58.7428 5.74873 56.0389 2.5538C52.6307 -1.26082 46.655 -0.422538 41.2899 2.57743C37.7451 -1.07111 32.1777 -0.249892 27.0555 2.60894C20.3951 -4.32774 6.48436 4.61044 1.98704 13.2946C-4.94373 26.6789 7.51958 38.0158 19.9074 31.3942C23.726 33.8381 29.015 34.1985 34.2862 31.3371C38.5026 34.6226 44.7421 35.1549 50.4073 31.3042C54.3072 28.5327 56.1545 24.9551 55.7527 25.1901C55.305 25.4533 54.1215 27.378 49.4147 30.2231C43.978 32.8521 36.7026 31.0311 33.8635 25.0056H29.936C30.6692 27.3695 32.0097 29.3539 33.7289 30.8631C25.6756 33.7607 14.0105 27.7712 18.8637 14.5944C22.3848 5.5124 34.3499 -3.46386 40.7956 2.87414C37.816 4.62686 35.0536 7.01961 33.0757 9.6454Z" fill="#FEFEFE"/>
<path fill-rule="evenodd" clip-rule="evenodd" d="M58.6834 15.5794L58.8889 14.7825C59.0379 14.2173 59.1002 13.8523 59.0812 13.6895C59.0622 13.524 58.9624 13.4433 58.7851 13.4446C58.556 13.4466 58.3959 13.5168 58.304 13.6573C58.2167 13.7984 58.0939 14.1766 57.9357 14.7897L57.727 15.5873L58.6834 15.5794ZM61.5252 17.3058L57.2747 17.3426L56.6648 19.6881C56.5394 20.1798 56.4922 20.4968 56.5243 20.6373C56.5572 20.7771 56.6727 20.848 56.8723 20.8447C57.1145 20.8447 57.3029 20.7489 57.4368 20.5598C57.5674 20.3695 57.7027 20.0058 57.8431 19.4656L58.214 18.0332L61.344 18.0076L61.1365 18.8071C60.9619 19.4767 60.7886 19.992 60.6101 20.3531C60.4315 20.7121 60.1348 21.0981 59.7206 21.5097C59.3064 21.9194 58.837 22.2318 58.3079 22.4386C57.7814 22.6467 57.1598 22.7544 56.4423 22.7603C55.7471 22.7655 55.1662 22.6716 54.6804 22.4727C54.2018 22.2771 53.8585 22.0047 53.6557 21.6555C53.4509 21.3056 53.3458 20.9222 53.3406 20.5001C53.3347 20.0793 53.4371 19.4675 53.6458 18.6601L54.4638 15.4999C54.708 14.554 55.0303 13.8043 55.4268 13.2542C55.8213 12.7048 56.3517 12.2834 57.0075 11.9853C57.6607 11.6899 58.367 11.5376 59.1193 11.5311C60.0416 11.5245 60.7558 11.6932 61.2659 12.0392C61.774 12.3858 62.0753 12.8459 62.1672 13.4243C62.2584 14.0046 62.1685 14.8179 61.8974 15.8682L61.5252 17.3058Z" fill="#FEFEFE"/>
<path fill-rule="evenodd" clip-rule="evenodd" d="M67.5168 14.419C67.6383 13.9398 67.6888 13.6352 67.6658 13.5033C67.6422 13.372 67.5372 13.3083 67.3534 13.309C67.1696 13.3103 67.0179 13.3864 66.905 13.5381C66.7888 13.6891 66.6739 13.9851 66.561 14.4262L65.6486 17.9487C65.5278 18.4161 65.4786 18.7194 65.4976 18.8586C65.5179 18.9977 65.6217 19.0667 65.8074 19.064C66.0142 19.0621 66.1724 18.9781 66.2814 18.81C66.389 18.6393 66.5184 18.2573 66.6739 17.6632L67.5168 14.419ZM71.4128 11.6153L69.3266 19.6818C69.0418 20.7721 68.8343 21.4771 68.7004 21.7942C68.5652 22.1126 68.3019 22.4493 67.9041 22.8084C67.5116 23.1655 67.0179 23.4412 66.4278 23.631C65.8357 23.8239 65.1306 23.9244 64.314 23.9303C63.2978 23.9395 62.5298 23.7727 62.0053 23.434C61.4828 23.092 61.3397 22.4159 61.5812 21.4049L64.6659 21.3774C64.5444 21.85 64.6534 22.085 64.9928 22.0824C65.2344 22.0798 65.4142 22.0076 65.533 21.8612C65.6473 21.7154 65.7674 21.4128 65.8862 20.9559L66.0936 20.1557C65.7549 20.4058 65.4214 20.5962 65.0873 20.7249C64.7506 20.8555 64.4171 20.9185 64.0862 20.9238C63.5145 20.9277 63.072 20.8148 62.7615 20.5883C62.451 20.3592 62.2764 20.0612 62.2344 19.6844C62.1904 19.3122 62.26 18.7785 62.4418 18.0833L63.4232 14.2877C63.6812 13.2965 64.0442 12.5823 64.5142 12.1418C64.9836 11.704 65.5849 11.4814 66.3103 11.4749C66.7087 11.4722 67.0468 11.551 67.333 11.7112C67.6205 11.872 67.8496 12.1142 68.0269 12.4372L68.4536 11.6409L71.4128 11.6153Z" fill="#FEFEFE"/>
<path fill-rule="evenodd" clip-rule="evenodd" d="M76.0435 14.3472C76.1663 13.8687 76.2155 13.5647 76.1932 13.4315C76.1702 13.2995 76.0665 13.2358 75.882 13.2378C75.6982 13.2391 75.5473 13.3153 75.4311 13.4663C75.3188 13.6172 75.2046 13.9133 75.0884 14.3538L74.1779 17.8763C74.0584 18.343 74.0072 18.6463 74.0282 18.7874C74.0466 18.9266 74.1523 18.9949 74.3361 18.9936C74.5403 18.9903 74.6978 18.9076 74.8068 18.7382C74.9171 18.5675 75.0477 18.1855 75.2033 17.5914L76.0435 14.3472ZM79.9422 11.5442L77.8527 19.6106C77.5711 20.7016 77.3623 21.4047 77.2284 21.7231C77.0932 22.0408 76.8319 22.3782 76.4348 22.736C76.0383 23.0944 75.5473 23.3681 74.9551 23.5605C74.365 23.7541 73.6613 23.8519 72.8414 23.8578C71.8272 23.8683 71.0578 23.7016 70.5353 23.3622C70.0108 23.0209 69.869 22.346 70.1112 21.3331L73.1952 21.3075C73.0738 21.7789 73.1795 22.0139 73.5221 22.0106C73.765 22.0086 73.9436 21.9344 74.0604 21.7894C74.1779 21.6436 74.2941 21.343 74.4155 20.8848L74.621 20.0826C74.2875 20.334 73.9501 20.5237 73.6134 20.653C73.2819 20.7817 72.9464 20.848 72.6136 20.8513C72.0412 20.8552 71.602 20.745 71.2915 20.5185C70.9817 20.29 70.8057 19.9881 70.7644 19.6139C70.7224 19.2397 70.7906 18.706 70.9692 18.0135L71.9499 14.2172C72.2092 13.2253 72.5742 12.5111 73.0423 12.0707C73.5169 11.6321 74.1129 11.4083 74.8403 11.4037C75.2361 11.3998 75.5775 11.4792 75.8617 11.6394C76.1486 11.8009 76.379 12.0411 76.5562 12.3667L76.9862 11.5698L79.9422 11.5442Z" fill="#FEFEFE"/>
<path fill-rule="evenodd" clip-rule="evenodd" d="M54.8714 11.4618L50.5874 22.7225L46.9146 22.7553C47.0675 21.3807 47.3032 19.5637 47.617 17.3002C47.2395 18.3026 46.8371 19.307 46.4104 20.3127L45.4257 22.7652L41.7549 22.7993L43.2207 11.5609L46.1386 11.5353C46.0953 11.8268 45.7907 13.9799 45.2209 17.9974C45.3831 17.5674 46.1997 15.409 47.6728 11.5228L50.4574 11.4986L49.4937 17.96C50.097 16.0589 50.9169 13.9012 51.9462 11.4861L54.8714 11.4618Z" fill="#FEFEFE"/>
<path fill-rule="evenodd" clip-rule="evenodd" d="M38.2843 15.5989L38.4983 14.7725C38.6512 14.1849 38.7162 13.8075 38.6959 13.6381C38.6755 13.4681 38.5744 13.3834 38.3893 13.3861C38.149 13.3874 37.9843 13.4609 37.8943 13.6066C37.8018 13.7523 37.6718 14.1436 37.5083 14.7784L37.2943 15.6062L38.2843 15.5989ZM41.2311 17.3897L36.821 17.4271L36.1922 19.8613C36.0602 20.3713 36.0123 20.6982 36.0451 20.8446C36.0779 20.9903 36.1981 21.0612 36.4049 21.0599C36.6576 21.0593 36.8526 20.9582 36.9904 20.7645C37.125 20.5669 37.2655 20.1901 37.4112 19.6302L37.7946 18.144L41.04 18.1158L40.828 18.9468C40.6488 19.6427 40.465 20.175 40.2818 20.5486C40.0967 20.9221 39.7928 21.3232 39.3602 21.7492C38.9315 22.1739 38.4438 22.4969 37.8956 22.7122C37.3501 22.9288 36.7042 23.0391 35.9578 23.0437C35.2403 23.0529 34.6351 22.9538 34.1362 22.7503C33.6353 22.5461 33.2808 22.2625 33.0681 21.8995C32.8581 21.5391 32.7491 21.1394 32.7425 20.7028C32.7353 20.2663 32.8417 19.6302 33.0576 18.7945L33.9071 15.5162C34.1605 14.5329 34.4933 13.7583 34.9062 13.1878C35.3171 12.6174 35.8633 12.1795 36.5427 11.8723C37.2261 11.567 37.956 11.4088 38.7339 11.4003C39.6917 11.3931 40.4335 11.5703 40.9626 11.9274C41.493 12.2872 41.8022 12.7657 41.896 13.365C41.9906 13.965 41.8993 14.8066 41.617 15.8996L41.2311 17.3897Z" fill="#FEFEFE"/>
<path fill-rule="evenodd" clip-rule="evenodd" d="M29.6157 11.6795L29.2802 12.7147C29.636 12.3011 30.0181 11.99 30.4257 11.7805C30.8334 11.5738 31.2712 11.4661 31.7419 11.4628C32.3229 11.4595 32.764 11.5928 33.062 11.8652C33.364 12.1403 33.5117 12.4875 33.5064 12.907C33.5018 13.3271 33.3725 14.0282 33.1191 15.0109L31.0802 22.8922L27.6627 22.9198L29.6774 15.1284C29.8815 14.3538 29.9774 13.8812 29.9728 13.7125C29.9675 13.5444 29.8513 13.4591 29.6229 13.4617C29.3912 13.4643 29.2179 13.5628 29.103 13.7584C28.9914 13.9534 28.8233 14.4766 28.6054 15.3227L26.636 22.929L23.2192 22.9585L26.1299 11.7083L29.6157 11.6795Z" fill="#FEFEFE"/>
<path fill-rule="evenodd" clip-rule="evenodd" d="M82.7541 11.5394V11.8782H82.1824V13.451H81.7806V11.8782H81.2056V11.5394H82.7541Z" fill="#FEFEFE"/>
<path fill-rule="evenodd" clip-rule="evenodd" d="M84.2551 11.5394H84.8295V13.451H84.458V12.1578C84.458 12.1204 84.4586 12.0685 84.4593 12.0016C84.4599 11.9346 84.4606 11.8828 84.4606 11.8466L84.0982 13.451H83.7103L83.3505 11.8466C83.3505 11.8828 83.3512 11.9346 83.3519 12.0016C83.3525 12.0685 83.3532 12.1204 83.3532 12.1578V13.451H82.981V11.5394H83.5619L83.9098 13.042L84.2551 11.5394Z" fill="#FEFEFE"/>
<path fill-rule="evenodd" clip-rule="evenodd" d="M195.07 13.4606V13.7646H194.556V15.1779H194.195V13.7646H193.679V13.4606H195.07Z" fill="#FEFEFE"/>
<path fill-rule="evenodd" clip-rule="evenodd" d="M196.418 13.4606H196.934V15.1779H196.6V14.016C196.6 13.9825 196.601 13.9359 196.601 13.8762C196.602 13.8158 196.602 13.7692 196.602 13.7363L196.277 15.1779H195.928L195.606 13.7363C195.606 13.7692 195.606 13.8158 195.606 13.8762C195.608 13.9359 195.608 13.9825 195.608 14.016V15.1779H195.273V13.4606H195.795L196.108 14.8103L196.418 13.4606Z" fill="#FEFEFE"/>
</svg>
