<svg width="24" height="24" viewBox="0 0 24 24" fill="none" xmlns="http://www.w3.org/2000/svg">
<path fill-rule="evenodd" clip-rule="evenodd" d="M9.50206 22H14.4979C14.8744 22 15.1234 21.7509 15.1254 21.3742V18.9985C15.5541 18.8925 15.9829 18.6004 16.3326 18.3622C16.3906 18.3227 16.4465 18.2846 16.4998 18.2491L18.4978 19.4988C18.8723 19.6243 19.2468 19.4988 19.3723 19.2496L21.8702 14.8749C21.9957 14.5002 21.8702 14.1256 21.6212 14L19.6232 12.7504V11.2496L21.6212 10C21.9957 9.87445 22.1192 9.49975 21.8702 9.12506L19.3723 4.75037C19.1233 4.37567 18.7468 4.37567 18.4978 4.50123L16.4998 5.75086C16.1253 5.50172 15.6254 5.25061 15.1254 5.00147V2.6258C15.1254 2.24914 14.8744 2 14.4999 2H9.50206C9.1256 2 8.87659 2.2511 8.87659 2.6258V5.12702C8.44781 5.23301 8.01904 5.52512 7.66941 5.7633C7.61135 5.80286 7.55547 5.84093 7.50213 5.87641L5.50417 4.62678C5.12967 4.37764 4.75518 4.50319 4.62969 4.75233L2.13175 9.12702C1.88078 9.50172 2.00626 9.87641 2.38076 10.002L4.37676 11.2516V12.7523L2.3788 14.002C2.0043 14.1275 1.88078 14.5022 2.12979 14.8769L4.62969 19.2516C4.8787 19.6263 5.25516 19.6263 5.50417 19.5007L7.50213 18.2511C7.87663 18.5002 8.37661 18.7513 8.87659 19.0005V21.3742C8.87659 21.7509 9.12756 22 9.50206 22ZM11.8501 14.7C13.4241 14.7 14.7001 13.424 14.7001 11.85C14.7001 10.276 13.4241 8.99998 11.8501 8.99998C10.2761 8.99998 9.0001 10.276 9.0001 11.85C9.0001 13.424 10.2761 14.7 11.8501 14.7Z" fill="#0072EC"/>
</svg>
